<mxfile host="app.diagrams.net" agent="Mozilla/5.0 (X11; Linux x86_64) AppleWebKit/537.36 (KHTML, like Gecko) Chrome/113.0.0.0 Safari/537.36" version="26.0.6" pages="3">
  <diagram name="host tool" id="vNKs32PtMG_OeeysRjxX">
    <mxGraphModel dx="1648" dy="909" grid="1" gridSize="10" guides="1" tooltips="1" connect="1" arrows="1" fold="1" page="1" pageScale="1" pageWidth="850" pageHeight="1100" math="0" shadow="0">
      <root>
        <mxCell id="0" />
        <mxCell id="1" parent="0" />
        <mxCell id="hkLPs1jzMx56ZiKRo-bt-9" style="edgeStyle=orthogonalEdgeStyle;rounded=0;orthogonalLoop=1;jettySize=auto;html=1;entryX=0;entryY=0.5;entryDx=0;entryDy=0;" edge="1" parent="1" source="hkLPs1jzMx56ZiKRo-bt-1" target="hkLPs1jzMx56ZiKRo-bt-8">
          <mxGeometry relative="1" as="geometry" />
        </mxCell>
        <mxCell id="hkLPs1jzMx56ZiKRo-bt-1" value="image header" style="rounded=0;whiteSpace=wrap;html=1;fillColor=#fff2cc;strokeColor=#d6b656;" vertex="1" parent="1">
          <mxGeometry x="375" y="360" width="120" height="60" as="geometry" />
        </mxCell>
        <mxCell id="hkLPs1jzMx56ZiKRo-bt-6" style="edgeStyle=orthogonalEdgeStyle;rounded=0;orthogonalLoop=1;jettySize=auto;html=1;entryX=0;entryY=0.5;entryDx=0;entryDy=0;" edge="1" parent="1" source="hkLPs1jzMx56ZiKRo-bt-4" target="hkLPs1jzMx56ZiKRo-bt-5">
          <mxGeometry relative="1" as="geometry" />
        </mxCell>
        <mxCell id="hkLPs1jzMx56ZiKRo-bt-4" value="signature" style="rounded=0;whiteSpace=wrap;html=1;fillColor=#fff2cc;strokeColor=#d6b656;" vertex="1" parent="1">
          <mxGeometry x="150" y="570" width="120" height="60" as="geometry" />
        </mxCell>
        <mxCell id="hkLPs1jzMx56ZiKRo-bt-11" style="edgeStyle=orthogonalEdgeStyle;rounded=0;orthogonalLoop=1;jettySize=auto;html=1;entryX=0;entryY=0.5;entryDx=0;entryDy=0;" edge="1" parent="1" source="hkLPs1jzMx56ZiKRo-bt-5" target="hkLPs1jzMx56ZiKRo-bt-8">
          <mxGeometry relative="1" as="geometry" />
        </mxCell>
        <mxCell id="hkLPs1jzMx56ZiKRo-bt-5" value="auth_data" style="rounded=0;whiteSpace=wrap;html=1;fillColor=#fff2cc;strokeColor=#d6b656;" vertex="1" parent="1">
          <mxGeometry x="375" y="570" width="120" height="60" as="geometry" />
        </mxCell>
        <mxCell id="hkLPs1jzMx56ZiKRo-bt-10" style="edgeStyle=orthogonalEdgeStyle;rounded=0;orthogonalLoop=1;jettySize=auto;html=1;entryX=0;entryY=0.5;entryDx=0;entryDy=0;" edge="1" parent="1" source="hkLPs1jzMx56ZiKRo-bt-7" target="hkLPs1jzMx56ZiKRo-bt-8">
          <mxGeometry relative="1" as="geometry" />
        </mxCell>
        <mxCell id="hkLPs1jzMx56ZiKRo-bt-7" value="sram binary" style="rounded=0;whiteSpace=wrap;html=1;fillColor=#fff2cc;strokeColor=#d6b656;" vertex="1" parent="1">
          <mxGeometry x="375" y="460" width="120" height="60" as="geometry" />
        </mxCell>
        <mxCell id="hkLPs1jzMx56ZiKRo-bt-14" style="edgeStyle=orthogonalEdgeStyle;rounded=0;orthogonalLoop=1;jettySize=auto;html=1;entryX=0;entryY=0.5;entryDx=0;entryDy=0;" edge="1" parent="1" source="hkLPs1jzMx56ZiKRo-bt-8" target="hkLPs1jzMx56ZiKRo-bt-13">
          <mxGeometry relative="1" as="geometry" />
        </mxCell>
        <mxCell id="hkLPs1jzMx56ZiKRo-bt-8" value="image binary" style="rounded=0;whiteSpace=wrap;html=1;fillColor=#fff2cc;strokeColor=#d6b656;" vertex="1" parent="1">
          <mxGeometry x="630" y="460" width="120" height="60" as="geometry" />
        </mxCell>
        <mxCell id="hkLPs1jzMx56ZiKRo-bt-15" style="edgeStyle=orthogonalEdgeStyle;rounded=0;orthogonalLoop=1;jettySize=auto;html=1;entryX=0;entryY=0.5;entryDx=0;entryDy=0;" edge="1" parent="1" source="hkLPs1jzMx56ZiKRo-bt-12" target="hkLPs1jzMx56ZiKRo-bt-13">
          <mxGeometry relative="1" as="geometry" />
        </mxCell>
        <mxCell id="hkLPs1jzMx56ZiKRo-bt-12" value="flash_config" style="rounded=0;whiteSpace=wrap;html=1;fillColor=#fff2cc;strokeColor=#d6b656;" vertex="1" parent="1">
          <mxGeometry x="630" y="630" width="120" height="60" as="geometry" />
        </mxCell>
        <mxCell id="hkLPs1jzMx56ZiKRo-bt-13" value="flash binary" style="rounded=0;whiteSpace=wrap;html=1;fillColor=#fff2cc;strokeColor=#d6b656;" vertex="1" parent="1">
          <mxGeometry x="860" y="540" width="120" height="60" as="geometry" />
        </mxCell>
      </root>
    </mxGraphModel>
  </diagram>
  <diagram id="d1Pj08XiPpf-Fk0OUyw7" name="Page-2">
    <mxGraphModel grid="1" page="1" gridSize="10" guides="1" tooltips="1" connect="1" arrows="1" fold="1" pageScale="1" pageWidth="850" pageHeight="1100" math="0" shadow="0">
      <root>
        <mxCell id="0" />
        <mxCell id="1" parent="0" />
      </root>
    </mxGraphModel>
  </diagram>
  <diagram id="v74BMTSNkPuBPyZ8hmsy" name="Page-3">
    <mxGraphModel grid="1" page="1" gridSize="10" guides="1" tooltips="1" connect="1" arrows="1" fold="1" pageScale="1" pageWidth="850" pageHeight="1100" math="0" shadow="0">
      <root>
        <mxCell id="0" />
        <mxCell id="1" parent="0" />
      </root>
    </mxGraphModel>
  </diagram>
</mxfile>
